<svg width="60" height="60" viewBox="0 0 60 60" fill="none" xmlns="http://www.w3.org/2000/svg">
<g clip-path="url(#clip0_1859_9830)">
<path d="M26.2786 0C27.5716 0.340195 28.8017 0.795534 29.8434 1.66957C30.6024 2.30809 31.2097 3.05652 31.7017 3.90963C34.9891 9.57781 38.2503 15.2669 41.5691 20.9142C42.5846 22.6465 41.7837 24.7296 39.7736 25.0279C38.8 25.1745 37.7897 24.6616 37.1981 23.6462C35.6382 20.9665 34.0887 18.2816 32.534 15.5967C30.8223 12.6448 29.032 9.73482 27.4302 6.72017C26.3362 4.66329 23.567 4.7261 22.4363 6.694C16.9085 16.3608 11.2812 25.9752 5.68532 35.6054C5.30843 36.2544 4.99435 36.9243 5.15662 37.7094C5.43929 39.0649 6.44436 39.8814 7.87866 39.8814C12.7155 39.8814 17.5576 39.8814 22.3944 39.8814C23.7764 39.8814 24.771 40.6874 25.038 41.9853C25.3521 43.5031 24.1899 44.9686 22.6352 44.9843C20.8397 45 19.0443 44.9843 17.2488 44.9843C14.0085 44.9843 10.7682 44.9895 7.53317 44.9843C3.44488 44.9843 0.0370961 41.5405 0.000453263 37.4372C-0.0152508 35.9089 0.377351 34.5168 1.14162 33.2083C6.69562 23.6462 12.2706 14.0946 17.7827 4.50628C19.128 2.16678 20.9392 0.580949 23.588 0H26.2786Z" fill="#555555"/>
<path d="M59.9982 58.1839C59.1764 60.2146 57.2029 60.3088 56.1298 59.6022C55.889 59.44 55.6744 59.2359 55.465 59.0318C53.6119 57.1895 51.7536 55.3472 49.9267 53.484C49.5393 53.0914 49.2776 53.0077 48.7594 53.3165C41.2057 57.7966 31.286 52.992 30.0925 44.2987C29.1659 37.521 33.5316 31.3346 40.253 30.1204C47.4402 28.8172 53.7166 33.6846 54.8787 40.3053C55.4126 43.3461 54.8525 46.1986 53.2874 48.8468C53.0727 49.2132 53.078 49.433 53.3921 49.7418C55.2033 51.5161 56.983 53.3217 58.7838 55.1064C59.2601 55.5775 59.7051 56.059 59.993 56.6661V58.1891L59.9982 58.1839ZM42.483 49.8517C46.6184 49.8622 49.8953 46.612 49.9057 42.4983C49.9162 38.3898 46.6236 35.0454 42.5667 35.0401C38.468 35.0349 35.1073 38.3322 35.0916 42.3831C35.0759 46.523 38.3633 49.8413 42.483 49.8517Z" fill="#555555"/>
<path d="M22.4943 18.7003C22.4943 17.4547 22.489 16.2038 22.4943 14.9582C22.5047 13.5346 23.5935 12.4302 25.0017 12.3988C26.3261 12.3674 27.5614 13.4875 27.5824 14.843C27.619 17.4337 27.619 20.0297 27.5824 22.6204C27.5614 23.9759 26.3208 25.096 24.9964 25.0646C23.5883 25.0332 22.4995 23.9288 22.489 22.5053C22.4786 21.2387 22.489 19.9721 22.489 18.7055L22.4943 18.7003Z" fill="#555555"/>
<path d="M21.2109 32.4704C21.2057 30.3926 22.9227 28.6602 24.9956 28.6497C27.0947 28.6392 28.8798 30.3978 28.8693 32.4599C28.8588 34.5325 27.0686 36.312 25.0061 36.3015C22.9541 36.291 21.2214 34.5377 21.2162 32.4651L21.2109 32.4704Z" fill="#555555"/>
</g>
<defs>
<clipPath id="clip0_1859_9830">
<rect width="60" height="60" fill="white"/>
</clipPath>
</defs>
</svg>
