<svg width="61" height="29" viewBox="0 0 61 29" fill="none" xmlns="http://www.w3.org/2000/svg">
<path d="M29.4733 20L28.1293 17.008H21.8893L20.5453 20H19.3133L24.4333 8.8H25.6013L30.7213 20H29.4733ZM22.3213 16.048H27.6973L25.0093 10.032L22.3213 16.048ZM36.2879 18.672L36.6879 19.488C36.2399 19.888 35.5679 20.08 34.9119 20.08C33.3279 20.08 32.4479 19.184 32.4479 17.632V12.544H30.9439V11.584H32.4479V9.744H33.5839V11.584H36.1439V12.544H33.5839V17.568C33.5839 18.56 34.0959 19.104 35.0399 19.104C35.5039 19.104 35.9679 18.96 36.2879 18.672ZM39.8439 13.232C40.3719 12.112 41.4439 11.52 42.9959 11.52V12.624C42.8999 12.624 42.8039 12.608 42.7239 12.608C40.9639 12.608 39.8919 13.728 39.8919 15.712V20H38.7559V11.584H39.8439V13.232ZM47.9811 11.52C50.1571 11.52 51.3891 12.608 51.3891 14.784V20H50.3011V18.688C49.7891 19.552 48.7971 20.08 47.4051 20.08C45.5011 20.08 44.3331 19.088 44.3331 17.632C44.3331 16.336 45.1651 15.248 47.5811 15.248H50.2531V14.736C50.2531 13.296 49.4371 12.512 47.8691 12.512C46.7811 12.512 45.7571 12.896 45.0691 13.504L44.5571 12.656C45.4051 11.936 46.6531 11.52 47.9811 11.52ZM47.5811 19.184C48.8611 19.184 49.8051 18.576 50.2531 17.472V16.096H47.6131C45.9811 16.096 45.4531 16.736 45.4531 17.6C45.4531 18.576 46.2371 19.184 47.5811 19.184ZM56.7306 20.08C55.3386 20.08 53.9946 19.632 53.3066 19.04L53.8186 18.144C54.4906 18.672 55.6266 19.088 56.8106 19.088C58.4106 19.088 59.0666 18.544 59.0666 17.712C59.0666 15.52 53.6106 17.248 53.6106 13.92C53.6106 12.544 54.7946 11.52 56.9386 11.52C58.0266 11.52 59.2106 11.824 59.9146 12.304L59.4186 13.216C58.6826 12.704 57.8026 12.496 56.9386 12.496C55.4186 12.496 54.7466 13.088 54.7466 13.888C54.7466 16.16 60.2026 14.448 60.2026 17.68C60.2026 19.136 58.9226 20.08 56.7306 20.08Z" fill="#0C0C0C"/>
<g clip-path="url(#clip0_1898_11803)">
<path d="M8.09348 6C7.69343 5.98828 7.29337 6.18755 6.959 6.51575C4.82735 8.6022 2.68974 10.6828 0.576014 12.7868C-0.182302 13.5429 -0.194243 14.4513 0.564072 15.2015C2.68377 17.3114 4.82735 19.4037 6.97094 21.496C7.44862 21.959 8.0278 22.1172 8.67864 21.918C9.31754 21.7245 9.68774 21.2674 9.80716 20.6344C9.92658 20.0366 9.68177 19.5443 9.25783 19.1223C7.64566 17.5458 6.03946 15.9634 4.4273 14.381C4.16059 14.1192 4.15661 13.8632 4.41536 13.6132C6.03946 12.0308 7.66357 10.4425 9.27574 8.85421C9.9624 8.17436 10.0341 7.28938 9.47278 6.60366C9.13841 6.19927 8.70849 6 8.09348 6Z" fill="#8E8E8E"/>
</g>
<defs>
<clipPath id="clip0_1898_11803">
<rect width="9.84615" height="16" fill="white" transform="matrix(-1 0 0 1 9.84766 6)"/>
</clipPath>
</defs>
</svg>
